<svg width="48" height="48" viewBox="0 0 48 48" fill="none" xmlns="http://www.w3.org/2000/svg">
<rect width="48" height="48" rx="8" fill="#1A2C9F"/>
<path d="M18.7617 19.0195L17.7637 18.9512C17.4264 18.0397 16.9616 17.4199 16.3691 17.0918C15.7767 16.7546 15.2344 16.5859 14.7422 16.5859C13.9128 16.5859 13.3112 16.7819 12.9375 17.1738C12.5729 17.5566 12.3906 18.0033 12.3906 18.5137C12.3906 19.0697 12.5911 19.5482 12.9922 19.9492C13.3932 20.3503 13.9082 20.7194 14.5371 21.0566C15.1751 21.3848 15.8451 21.7266 16.5469 22.082C17.2578 22.4284 17.9277 22.8203 18.5566 23.2578C19.1947 23.6953 19.7142 24.2194 20.1152 24.8301C20.5163 25.4408 20.7168 26.1836 20.7168 27.0586C20.7168 27.6419 20.5801 28.248 20.3066 28.877C20.0423 29.5059 19.6322 30.0892 19.0762 30.627C18.5202 31.1647 17.8184 31.6022 16.9707 31.9395C16.1322 32.2676 15.1387 32.4316 13.9902 32.4316C13.571 32.4316 13.0605 32.377 12.459 32.2676C11.8665 32.1673 11.2741 32.0215 10.6816 31.8301C10.0892 31.6296 9.58789 31.3971 9.17773 31.1328C9.12305 31.1055 9.07747 30.9323 9.04102 30.6133C9.01367 30.2852 9 29.8887 9 29.4238C9.00911 28.959 9.03646 28.4805 9.08203 27.9883C9.13672 27.4961 9.21419 27.0677 9.31445 26.7031L10.3672 26.7715C10.7682 27.8014 11.3288 28.6719 12.0488 29.3828C12.778 30.0938 13.5846 30.4492 14.4688 30.4492C15.2526 30.4492 15.9362 30.2533 16.5195 29.8613C17.1029 29.4694 17.3945 28.8542 17.3945 28.0156C17.3945 27.2956 17.194 26.6986 16.793 26.2246C16.401 25.7507 15.8906 25.3451 15.2617 25.0078C14.6328 24.6615 13.9629 24.3288 13.252 24.0098C12.5501 23.6908 11.8848 23.3398 11.2559 22.957C10.627 22.5651 10.112 22.0866 9.71094 21.5215C9.31901 20.9564 9.12305 20.25 9.12305 19.4023C9.12305 18.9922 9.24609 18.5365 9.49219 18.0352C9.73828 17.5247 10.1165 17.0417 10.627 16.5859C11.1374 16.1211 11.7845 15.7428 12.5684 15.4512C13.3613 15.1504 14.3001 15 15.3848 15C16.3691 15 17.2897 15.1185 18.1465 15.3555C19.0033 15.5833 19.5911 15.8704 19.9102 16.2168C19.974 16.2715 19.9694 16.4264 19.8965 16.6816C19.8327 16.9368 19.7279 17.2285 19.582 17.5566C19.4453 17.8757 19.2995 18.1764 19.1445 18.459C18.9987 18.7324 18.8711 18.9193 18.7617 19.0195Z" fill="#D4E2F6"/>
<path d="M24.4793 30.6406C24.4793 31.1328 24.3335 31.5384 24.0418 31.8574C23.659 32.2949 23.1258 32.5137 22.4422 32.5137C22.0138 32.5137 21.6219 32.3952 21.2664 32.1582C20.9109 31.9303 20.7332 31.5384 20.7332 30.9824C20.7332 30.472 20.9018 30.0482 21.2391 29.7109C21.6492 29.3008 22.187 29.0957 22.8523 29.0957C23.226 29.0957 23.5906 29.2142 23.9461 29.4512C24.3016 29.6882 24.4793 30.0846 24.4793 30.6406Z" fill="#D4E2F6"/>
<path d="M30.9488 32.4316C29.8277 32.4316 28.8206 32.2038 27.9273 31.748C27.0432 31.2832 26.2822 30.6543 25.6441 29.8613C25.0152 29.0592 24.5322 28.1523 24.1949 27.1406C23.8668 26.1198 23.7027 25.0579 23.7027 23.9551C23.7027 22.752 23.8941 21.6126 24.277 20.5371C24.6689 19.4616 25.2158 18.5091 25.9176 17.6797C26.6285 16.8503 27.4716 16.1986 28.4469 15.7246C29.4312 15.2415 30.5159 15 31.7008 15C32.8766 15 33.9156 15.237 34.818 15.7109C35.7203 16.1849 36.4768 16.8275 37.0875 17.6387C37.6982 18.4408 38.1585 19.3477 38.4684 20.3594C38.7874 21.3711 38.9469 22.4147 38.9469 23.4902C38.9469 24.6842 38.7327 25.819 38.3043 26.8945C37.885 27.9701 37.3062 28.9225 36.568 29.752C35.8297 30.5814 34.9775 31.2376 34.0113 31.7207C33.0543 32.1947 32.0335 32.4316 30.9488 32.4316ZM31.5914 30.5859C32.6396 30.5859 33.5055 30.0254 34.1891 28.9043C34.8818 27.7832 35.2281 26.056 35.2281 23.7227C35.2281 22.5104 35.0458 21.3757 34.6812 20.3184C34.3258 19.2611 33.8245 18.4089 33.1773 17.7617C32.5393 17.1055 31.7919 16.7773 30.9352 16.7773C29.7776 16.7773 28.9026 17.3743 28.3102 18.5684C27.7177 19.7533 27.4215 21.4212 27.4215 23.5723C27.4215 24.8939 27.6083 26.0833 27.982 27.1406C28.3648 28.1979 28.8707 29.0365 29.4996 29.6562C30.1285 30.276 30.8258 30.5859 31.5914 30.5859Z" fill="#D4E2F6"/>
</svg>

