<svg xmlns="http://www.w3.org/2000/svg" width="97" height="19" viewBox="0 0 97 19" fill="none">
  <path d="M6.8457 5.05664L6.17188 5.00781C5.91797 4.38281 5.57943 3.95638 5.15625 3.72852C4.73958 3.50065 4.35547 3.38672 4.00391 3.38672C3.39844 3.38672 2.96224 3.5332 2.69531 3.82617C2.42839 4.11263 2.29492 4.4349 2.29492 4.79297C2.29492 5.1901 2.4349 5.5319 2.71484 5.81836C3.0013 6.10482 3.36914 6.36849 3.81836 6.60938C4.27409 6.84375 4.7526 7.08464 5.25391 7.33203C5.76172 7.57943 6.24023 7.85938 6.68945 8.17188C7.14518 8.48438 7.51302 8.85872 7.79297 9.29492C8.07943 9.73112 8.22266 10.2617 8.22266 10.8867C8.22266 11.3034 8.12826 11.7363 7.93945 12.1855C7.75065 12.6348 7.46094 13.0514 7.07031 13.4355C6.6862 13.8197 6.19466 14.1322 5.5957 14.373C5.00326 14.6074 4.30664 14.7246 3.50586 14.7246C3.20638 14.7246 2.84831 14.6855 2.43164 14.6074C2.01497 14.5358 1.59831 14.4316 1.18164 14.2949C0.771484 14.1517 0.419922 13.9857 0.126953 13.7969C0.0878906 13.7773 0.0553385 13.6569 0.0292969 13.4355C0.00976562 13.2077 0 12.931 0 12.6055C0.00651042 12.2799 0.0260417 11.9479 0.0585938 11.6094C0.0976562 11.2708 0.14974 10.9746 0.214844 10.7207L0.927734 10.7695C1.20768 11.5117 1.60807 12.127 2.12891 12.6152C2.64974 13.097 3.22917 13.3379 3.86719 13.3379C4.42057 13.3379 4.91211 13.1914 5.3418 12.8984C5.77148 12.599 5.98633 12.1497 5.98633 11.5508C5.98633 11.0365 5.8431 10.61 5.55664 10.2715C5.27669 9.93294 4.91211 9.64323 4.46289 9.40234C4.01367 9.15495 3.53841 8.92057 3.03711 8.69922C2.53581 8.47135 2.06055 8.2207 1.61133 7.94727C1.16211 7.66732 0.794271 7.32552 0.507812 6.92188C0.227865 6.51823 0.0878906 6.01367 0.0878906 5.4082C0.0878906 5.10872 0.172526 4.77995 0.341797 4.42188C0.517578 4.0638 0.78125 3.72201 1.13281 3.39648C1.49089 3.07096 1.94661 2.80404 2.5 2.5957C3.05339 2.38086 3.71094 2.27344 4.47266 2.27344C5.16276 2.27344 5.80729 2.35807 6.40625 2.52734C7.00521 2.6901 7.41862 2.89518 7.64648 3.14258C7.69206 3.18164 7.6888 3.28906 7.63672 3.46484C7.59115 3.63411 7.51953 3.82943 7.42188 4.05078C7.32422 4.27214 7.22005 4.47721 7.10938 4.66602C7.00521 4.85482 6.91732 4.98503 6.8457 5.05664Z" fill="#1A2C9F"/>
  <path d="M15.8203 12.957C14.9805 13.569 14.2773 14.015 13.7109 14.2949C13.1445 14.5749 12.7018 14.7148 12.3828 14.7148C11.8359 14.7148 11.3672 14.5033 10.9766 14.0801C10.5924 13.6569 10.4004 13.0156 10.4004 12.1562V7.04883H9.29688L9.02344 6.7168L9.73633 5.84766H10.4004V3.98242L12.3633 2.53711L12.7344 2.84961V5.84766H15.4785L15.8203 6.19922C15.7096 6.41406 15.5599 6.64193 15.3711 6.88281C15.1823 7.11719 15.026 7.27995 14.9023 7.37109C14.7591 7.29948 14.541 7.22786 14.248 7.15625C13.9551 7.08464 13.6621 7.04883 13.3691 7.04883H12.7344V11.2773C12.7344 11.8958 12.806 12.3288 12.9492 12.5762C13.0924 12.8236 13.2682 12.9473 13.4766 12.9473C13.6914 12.9473 13.9355 12.9017 14.209 12.8105C14.4889 12.7129 14.8861 12.5208 15.4004 12.2344L15.8203 12.957Z" fill="#1A2C9F"/>
  <path d="M24.5898 9.38281C24.4857 9.50651 24.2871 9.64974 23.9941 9.8125C23.7077 9.96875 23.4668 10.0859 23.2715 10.1641H17.6953L17.7051 9.08008H21.9434C22.0801 9.08008 22.1712 9.05729 22.2168 9.01172C22.2689 8.96615 22.2949 8.87826 22.2949 8.74805C22.2949 8.50065 22.2461 8.21745 22.1484 7.89844C22.0508 7.57943 21.888 7.30273 21.6602 7.06836C21.4323 6.82747 21.1198 6.70703 20.7227 6.70703C20.0716 6.70703 19.6257 6.99674 19.3848 7.57617C19.1439 8.1556 19.0234 8.9401 19.0234 9.92969C19.0234 10.8542 19.2122 11.6159 19.5898 12.2148C19.9674 12.8138 20.5208 13.1133 21.25 13.1133C21.5039 13.1133 21.7513 13.0905 21.9922 13.0449C22.2396 12.9928 22.5228 12.8919 22.8418 12.7422C23.1608 12.5859 23.5612 12.3418 24.043 12.0098C24.1211 12.0553 24.2155 12.1595 24.3262 12.3223C24.4434 12.485 24.515 12.5924 24.541 12.6445C23.9746 13.2174 23.4766 13.6536 23.0469 13.9531C22.6172 14.2461 22.2005 14.4447 21.7969 14.5488C21.3932 14.6595 20.9408 14.7148 20.4395 14.7148C19.7363 14.7148 19.0918 14.5326 18.5059 14.168C17.9264 13.8034 17.4642 13.2956 17.1191 12.6445C16.7741 11.987 16.6016 11.222 16.6016 10.3496C16.6016 8.68945 17.2233 7.39388 18.4668 6.46289C18.7923 6.21549 19.1829 6.00716 19.6387 5.83789C20.1009 5.66211 20.5762 5.57422 21.0645 5.57422C21.8652 5.57422 22.526 5.75 23.0469 6.10156C23.5677 6.44661 23.9551 6.90885 24.209 7.48828C24.4629 8.0612 24.5898 8.69271 24.5898 9.38281Z" fill="#1A2C9F"/>
  <path d="M31.5918 14.7148C31.2402 14.7148 30.8789 14.64 30.5078 14.4902C30.1432 14.3405 29.6842 14.0768 29.1309 13.6992V17.5762C29.1309 17.6738 29.2448 17.7715 29.4727 17.8691C29.7005 17.9733 30.1009 18.0677 30.6738 18.1523V18.875H25.5957V18.1523C26.3965 17.9635 26.7969 17.7715 26.7969 17.5762V8.12305C26.7969 7.81055 26.7773 7.57292 26.7383 7.41016C26.6992 7.24089 26.5951 7.1237 26.4258 7.05859C26.2565 6.98698 25.9798 6.94466 25.5957 6.93164V6.22852C26.0905 6.16992 26.5007 6.11133 26.8262 6.05273C27.1517 5.99414 27.4479 5.92904 27.7148 5.85742C27.9818 5.7793 28.2747 5.6849 28.5938 5.57422L28.9941 5.97461L29.0723 6.99023C29.7624 6.41732 30.3418 6.03971 30.8105 5.85742C31.2858 5.66862 31.6992 5.57422 32.0508 5.57422C32.6042 5.57422 33.1152 5.72396 33.584 6.02344C34.0592 6.31641 34.4401 6.77539 34.7266 7.40039C35.0195 8.02539 35.166 8.82943 35.166 9.8125C35.166 10.431 35.0488 11.0332 34.8145 11.6191C34.5866 12.1986 34.2904 12.7227 33.9258 13.1914C33.5612 13.6536 33.1706 14.0247 32.7539 14.3047C32.3438 14.5781 31.9564 14.7148 31.5918 14.7148ZM30.8691 7.21484C30.7259 7.21484 30.5892 7.23438 30.459 7.27344C30.3288 7.30599 30.1628 7.38411 29.9609 7.50781C29.7656 7.625 29.4889 7.8138 29.1309 8.07422V12.3125C29.5736 12.5599 29.9316 12.7422 30.2051 12.8594C30.485 12.9701 30.7227 13.0417 30.918 13.0742C31.1133 13.1003 31.3053 13.1133 31.4941 13.1133C31.9368 13.1133 32.2917 12.8887 32.5586 12.4395C32.832 11.9837 32.9688 11.3392 32.9688 10.5059C32.9688 9.70508 32.8646 9.0638 32.6562 8.58203C32.4479 8.10026 32.181 7.75195 31.8555 7.53711C31.5365 7.32227 31.2077 7.21484 30.8691 7.21484Z" fill="#1A2C9F"/>
  <path d="M41.8066 14.4414V13.7188C42.2428 13.6016 42.5521 13.5007 42.7344 13.416C42.9167 13.3249 43.0078 13.237 43.0078 13.1523V9.24609C43.0078 8.4974 42.9297 7.99284 42.7734 7.73242C42.6172 7.47201 42.3568 7.3418 41.9922 7.3418C41.6536 7.3418 41.3053 7.4362 40.9473 7.625C40.5957 7.80729 40.1855 8.06445 39.7168 8.39648V13.1523C39.7168 13.3607 40.1172 13.5495 40.918 13.7188V14.4414H36.1816V13.7188C36.9824 13.5104 37.3828 13.3216 37.3828 13.1523V2.77148C37.3828 2.43294 37.3633 2.18555 37.3242 2.0293C37.2852 1.87305 37.181 1.76562 37.0117 1.70703C36.849 1.64844 36.5723 1.59635 36.1816 1.55078V0.857422C36.8978 0.766276 37.4772 0.66862 37.9199 0.564453C38.3691 0.453776 38.8281 0.307292 39.2969 0.125L39.7168 0.515625V7.06836C40.446 6.52799 41.11 6.14388 41.709 5.91602C42.3079 5.68815 42.8451 5.57422 43.3203 5.57422C43.8477 5.57422 44.3164 5.75651 44.7266 6.12109C45.1367 6.47917 45.3418 7.10417 45.3418 7.99609V13.1523C45.3418 13.237 45.4232 13.3216 45.5859 13.4062C45.7487 13.4909 46.0677 13.5951 46.543 13.7188V14.4414H41.8066Z" fill="#1A2C9F"/>
  <path d="M56.1914 13.3574C55.8464 13.5983 55.4818 13.8229 55.0977 14.0312C54.7135 14.2331 54.362 14.3958 54.043 14.5195C53.7305 14.6497 53.4961 14.7148 53.3398 14.7148C53.0794 14.7148 52.8646 14.5553 52.6953 14.2363C52.5326 13.9108 52.4512 13.4746 52.4512 12.9277V8.12305C52.4512 7.74544 52.3698 7.43294 52.207 7.18555C52.0508 6.93815 51.7546 6.81445 51.3184 6.81445C51.0449 6.82096 50.7845 6.92839 50.5371 7.13672C50.2962 7.33854 50.1921 7.625 50.2246 7.99609C50.2311 8.05469 50.1204 8.12956 49.8926 8.2207C49.6712 8.31185 49.4043 8.40299 49.0918 8.49414C48.7793 8.58529 48.4896 8.66016 48.2227 8.71875C47.9557 8.77083 47.7865 8.78711 47.7148 8.76758L47.5 8.24023C47.6953 7.73893 48.0371 7.28646 48.5254 6.88281C49.0202 6.47917 49.5931 6.16016 50.2441 5.92578C50.9017 5.69141 51.5853 5.57422 52.2949 5.57422C53.1608 5.57422 53.7923 5.79232 54.1895 6.22852C54.5931 6.66471 54.7949 7.19857 54.7949 7.83008V12.1465C54.7949 12.6283 54.9154 12.8691 55.1562 12.8691C55.2409 12.8691 55.3353 12.8529 55.4395 12.8203C55.5501 12.7878 55.7292 12.7194 55.9766 12.6152L56.1914 13.3574ZM52.5391 10.0957C51.8229 10.2129 51.3118 10.3268 51.0059 10.4375C50.7064 10.5482 50.4785 10.6816 50.3223 10.8379C50.1595 11.0007 50.0293 11.1732 49.9316 11.3555C49.834 11.5312 49.7852 11.7461 49.7852 12C49.7852 12.4102 49.8828 12.6868 50.0781 12.8301C50.2799 12.9668 50.459 13.0352 50.6152 13.0352C50.8301 13.0352 51.084 12.9733 51.377 12.8496C51.6764 12.7194 52.0638 12.4395 52.5391 12.0098L52.6172 13.1133C52.0443 13.7318 51.4714 14.1549 50.8984 14.3828C50.332 14.6042 49.8438 14.7148 49.4336 14.7148C49.0885 14.7148 48.7533 14.6335 48.4277 14.4707C48.1022 14.3145 47.8353 14.0768 47.627 13.7578C47.4251 13.4388 47.3242 13.0384 47.3242 12.5566C47.3242 12.153 47.3991 11.8047 47.5488 11.5117C47.6986 11.2188 47.8841 10.9616 48.1055 10.7402C48.3073 10.5384 48.5579 10.3464 48.8574 10.1641C49.1569 9.98177 49.5898 9.80924 50.1562 9.64648C50.7292 9.47721 51.5234 9.31445 52.5391 9.1582V10.0957Z" fill="#1A2C9F"/>
  <path d="M62.2949 14.4414V13.7188C62.7311 13.6016 63.0404 13.5007 63.2227 13.416C63.4049 13.3249 63.4961 13.237 63.4961 13.1523V9.08008C63.4961 8.41602 63.4277 7.96029 63.291 7.71289C63.1543 7.46549 62.9102 7.3418 62.5586 7.3418C62.2852 7.3418 61.9727 7.41016 61.6211 7.54688C61.2695 7.68359 60.7975 7.9668 60.2051 8.39648V13.1523C60.2051 13.3607 60.6055 13.5495 61.4062 13.7188V14.4414H56.6699V13.7188C57.4707 13.5104 57.8711 13.3216 57.8711 13.1523V8.12305C57.8711 7.79753 57.8516 7.5599 57.8125 7.41016C57.7799 7.25391 57.679 7.14648 57.5098 7.08789C57.3405 7.0293 57.0605 6.97721 56.6699 6.93164V6.22852C57.2754 6.16341 57.8092 6.08203 58.2715 5.98438C58.7402 5.88021 59.2057 5.74349 59.668 5.57422L60.0684 5.97461L60.166 7.14648C60.9082 6.56706 61.582 6.16016 62.1875 5.92578C62.793 5.69141 63.3333 5.57422 63.8086 5.57422C64.3359 5.57422 64.8047 5.75651 65.2148 6.12109C65.625 6.47917 65.8301 7.10417 65.8301 7.99609V13.1523C65.8301 13.237 65.9115 13.3216 66.0742 13.4062C66.237 13.4909 66.556 13.5951 67.0312 13.7188V14.4414H62.2949Z" fill="#1A2C9F"/>
  <path d="M71.6895 2.79102C71.6895 3.2207 71.5365 3.56901 71.2305 3.83594C70.9245 4.09635 70.5404 4.22656 70.0781 4.22656C69.7266 4.22656 69.4141 4.14193 69.1406 3.97266C68.8737 3.80339 68.7402 3.53646 68.7402 3.17188C68.7402 2.73568 68.8965 2.39062 69.209 2.13672C69.5215 1.8763 69.9023 1.74609 70.3516 1.74609C70.6901 1.74609 70.9961 1.83073 71.2695 2C71.5495 2.16276 71.6895 2.42643 71.6895 2.79102ZM67.8027 14.4414V13.7188C68.2129 13.6341 68.5156 13.5397 68.7109 13.4355C68.9062 13.3314 69.0039 13.237 69.0039 13.1523V8.50391C69.0039 8.08073 68.9844 7.76497 68.9453 7.55664C68.9128 7.3418 68.8118 7.19206 68.6426 7.10742C68.4798 7.02279 68.1999 6.96419 67.8027 6.93164V6.22852C68.3431 6.1569 68.8542 6.06901 69.3359 5.96484C69.8177 5.85417 70.2767 5.72396 70.7129 5.57422H71.3379V13.1523C71.3379 13.2305 71.4258 13.3249 71.6016 13.4355C71.7839 13.5397 72.0964 13.6341 72.5391 13.7188V14.4414H67.8027Z" fill="#1A2C9F"/>
  <path d="M81.5234 9.38281C81.4193 9.50651 81.2207 9.64974 80.9277 9.8125C80.6413 9.96875 80.4004 10.0859 80.2051 10.1641H74.6289L74.6387 9.08008H78.877C79.0137 9.08008 79.1048 9.05729 79.1504 9.01172C79.2025 8.96615 79.2285 8.87826 79.2285 8.74805C79.2285 8.50065 79.1797 8.21745 79.082 7.89844C78.9844 7.57943 78.8216 7.30273 78.5938 7.06836C78.3659 6.82747 78.0534 6.70703 77.6562 6.70703C77.0052 6.70703 76.5592 6.99674 76.3184 7.57617C76.0775 8.1556 75.957 8.9401 75.957 9.92969C75.957 10.8542 76.1458 11.6159 76.5234 12.2148C76.901 12.8138 77.4544 13.1133 78.1836 13.1133C78.4375 13.1133 78.6849 13.0905 78.9258 13.0449C79.1732 12.9928 79.4564 12.8919 79.7754 12.7422C80.0944 12.5859 80.4948 12.3418 80.9766 12.0098C81.0547 12.0553 81.1491 12.1595 81.2598 12.3223C81.377 12.485 81.4486 12.5924 81.4746 12.6445C80.9082 13.2174 80.4102 13.6536 79.9805 13.9531C79.5508 14.2461 79.1341 14.4447 78.7305 14.5488C78.3268 14.6595 77.8743 14.7148 77.373 14.7148C76.6699 14.7148 76.0254 14.5326 75.4395 14.168C74.86 13.8034 74.3978 13.2956 74.0527 12.6445C73.7077 11.987 73.5352 11.222 73.5352 10.3496C73.5352 8.68945 74.1569 7.39388 75.4004 6.46289C75.7259 6.21549 76.1165 6.00716 76.5723 5.83789C77.0345 5.66211 77.5098 5.57422 77.998 5.57422C78.7988 5.57422 79.4596 5.75 79.9805 6.10156C80.5013 6.44661 80.8887 6.90885 81.1426 7.48828C81.3965 8.0612 81.5234 8.69271 81.5234 9.38281Z" fill="#1A2C9F"/>
  <path d="M85.9277 13.4355C85.9277 13.7936 85.8236 14.0898 85.6152 14.3242C85.3483 14.6302 84.9805 14.7832 84.5117 14.7832C84.2122 14.7832 83.9421 14.6986 83.7012 14.5293C83.4668 14.3665 83.3496 14.0931 83.3496 13.709C83.3496 13.3444 83.4701 13.0384 83.7109 12.791C83.9909 12.498 84.3587 12.3516 84.8145 12.3516C85.0879 12.3516 85.3418 12.4362 85.5762 12.6055C85.8105 12.7747 85.9277 13.0514 85.9277 13.4355Z" fill="#1A2C9F"/>
  <path d="M96.2207 9.95898C96.2207 10.571 96.1003 11.1634 95.8594 11.7363C95.625 12.3027 95.2962 12.8105 94.873 13.2598C94.4499 13.709 93.9648 14.0638 93.418 14.3242C92.8711 14.5846 92.2884 14.7148 91.6699 14.7148C90.8236 14.7148 90.0846 14.526 89.4531 14.1484C88.8216 13.7643 88.3301 13.2435 87.9785 12.5859C87.6335 11.9219 87.4609 11.1732 87.4609 10.3398C87.4609 9.51953 87.653 8.74805 88.0371 8.02539C88.4277 7.29622 88.9648 6.70703 89.6484 6.25781C90.332 5.80208 91.123 5.57422 92.0215 5.57422C92.8678 5.57422 93.6068 5.76628 94.2383 6.15039C94.8698 6.52799 95.3581 7.04883 95.7031 7.71289C96.0482 8.37044 96.2207 9.11914 96.2207 9.95898ZM93.7598 10.3984C93.7598 9.7474 93.6784 9.14518 93.5156 8.5918C93.3594 8.03841 93.1315 7.5957 92.832 7.26367C92.5326 6.92513 92.1745 6.75586 91.7578 6.75586C91.276 6.75586 90.9017 6.90234 90.6348 7.19531C90.3678 7.48177 90.1823 7.87565 90.0781 8.37695C89.974 8.87826 89.9219 9.44466 89.9219 10.0762C89.9219 10.7207 90.0098 11.3066 90.1855 11.834C90.3678 12.3548 90.6087 12.7682 90.9082 13.0742C91.2077 13.3802 91.5462 13.5332 91.9238 13.5332C92.627 13.5332 93.1087 13.2663 93.3691 12.7324C93.6296 12.1921 93.7598 11.4141 93.7598 10.3984Z" fill="#1A2C9F"/>
</svg>
